<svg xmlns="http://www.w3.org/2000/svg" width="120" height="120" viewBox="0 0 120 120">
  <g fill="none" fill-rule="evenodd">
    <circle cx="60" cy="60" r="60" fill="#F7F7F7"/>
    <path fill="#000" fill-rule="nonzero" d="M34.0449219,57 L32.5917969,57 L32.5917969,48.8203125 L22.8417969,48.8203125 L22.8417969,57 L21.4003906,57 L21.4003906,39.9375 L22.8417969,39.9375 L22.8417969,47.6015625 L32.5917969,47.6015625 L32.5917969,39.9375 L34.0449219,39.9375 L34.0449219,57 Z M46.2089844,55.3945312 C45.3652302,56.6210999 44.0175874,57.234375 42.1660156,57.234375 C40.8144464,57.234375 39.7871129,56.8418008 39.0839844,56.0566406 C38.3808559,55.2714804 38.0214845,54.1093827 38.0058594,52.5703125 L38.0058594,44.3203125 L39.4003906,44.3203125 L39.4003906,52.3945312 C39.4003906,54.8086058 40.3769434,56.015625 42.3300781,56.015625 C44.3613383,56.015625 45.6464817,55.1757896 46.1855469,53.4960938 L46.1855469,44.3203125 L47.5917969,44.3203125 L47.5917969,57 L46.2324219,57 L46.2089844,55.3945312 Z M52.5136719,44.3203125 L52.5605469,46.3828125 C53.0292992,45.6171837 53.6152309,45.0429707 54.3183594,44.6601562 C55.0214879,44.2773418 55.8027301,44.0859375 56.6621094,44.0859375 C58.6621194,44.0859375 59.9316379,44.9062418 60.4707031,46.546875 C60.9238304,45.7578086 61.5292931,45.1503928 62.2871094,44.7246094 C63.0449257,44.298826 63.8808548,44.0859375 64.7949219,44.0859375 C67.5136855,44.0859375 68.9003904,45.5702977 68.9550781,48.5390625 L68.9550781,57 L67.5488281,57 L67.5488281,48.6445312 C67.5410156,47.5117131 67.2968774,46.6718777 66.8164062,46.125 C66.3359351,45.5781223 65.5527398,45.3046875 64.4667969,45.3046875 C63.4589793,45.3203126 62.6074254,45.6464812 61.9121094,46.2832031 C61.2167934,46.9199251 60.8300785,47.6953079 60.7519531,48.609375 L60.7519531,57 L59.3457031,57 L59.3457031,48.5390625 C59.3378906,47.4531196 59.0820338,46.6425808 58.578125,46.1074219 C58.0742162,45.5722629 57.2988334,45.3046875 56.2519531,45.3046875 C55.3691362,45.3046875 54.6113313,45.5566381 53.9785156,46.0605469 C53.3457,46.5644556 52.8769546,47.312495 52.5722656,48.3046875 L52.5722656,57 L51.1660156,57 L51.1660156,44.3203125 L52.5136719,44.3203125 Z M82.7128906,50.7890625 C82.7128906,52.7656349 82.275395,54.3339786 81.4003906,55.4941406 C80.5253862,56.6543027 79.3496168,57.234375 77.8730469,57.234375 C76.107413,57.234375 74.7714889,56.5781316 73.8652344,55.265625 L73.8066406,57 L72.4941406,57 L72.4941406,39 L73.8886719,39 L73.8886719,46.1601562 C74.7793013,44.7773368 76.0996006,44.0859375 77.8496094,44.0859375 C79.3496169,44.0859375 80.5351519,44.6581974 81.40625,45.8027344 C82.2773481,46.9472713 82.7128906,48.5390523 82.7128906,50.578125 L82.7128906,50.7890625 Z M81.3066406,50.5429688 C81.3066406,48.8710854 80.9824251,47.5800827 80.3339844,46.6699219 C79.6855436,45.7597611 78.7714903,45.3046875 77.5917969,45.3046875 C76.6933549,45.3046875 75.9316438,45.5253884 75.3066406,45.9667969 C74.6816375,46.4082053 74.208986,47.0546832 73.8886719,47.90625 L73.8886719,53.625 C74.5918004,55.218758 75.8339755,56.015625 77.6152344,56.015625 C78.7714902,56.015625 79.675778,55.5585983 80.328125,54.6445312 C80.980472,53.7304642 81.3066406,52.3632904 81.3066406,50.5429688 Z M87.3769531,57 L85.9707031,57 L85.9707031,39 L87.3769531,39 L87.3769531,57 Z M96.0957031,57.234375 C95.0175727,57.234375 94.0429731,56.9687527 93.171875,56.4375 C92.3007769,55.9062473 91.6230493,55.1660204 91.1386719,54.2167969 C90.6542945,53.2675734 90.4121094,52.2031309 90.4121094,51.0234375 L90.4121094,50.5195312 C90.4121094,49.3007752 90.6484351,48.2031299 91.1210938,47.2265625 C91.5937524,46.2499951 92.2519489,45.4824247 93.0957031,44.9238281 C93.9394573,44.3652316 94.8535107,44.0859375 95.8378906,44.0859375 C97.3769608,44.0859375 98.5976517,44.6113229 99.5,45.6621094 C100.402348,46.7128959 100.853516,48.1484284 100.853516,49.96875 L100.853516,50.7539062 L91.8066406,50.7539062 L91.8066406,51.0234375 C91.8066406,52.4609447 92.2187459,53.6581983 93.0429688,54.6152344 C93.8671916,55.5722704 94.9042906,56.0507812 96.1542969,56.0507812 C96.9043006,56.0507812 97.5664034,55.9140639 98.140625,55.640625 C98.7148466,55.3671861 99.2363258,54.9296905 99.7050781,54.328125 L100.583984,54.9960938 C99.5527292,56.4882887 98.0566504,57.234375 96.0957031,57.234375 Z M95.8378906,45.28125 C94.7831979,45.28125 93.8945349,45.6679649 93.171875,46.4414062 C92.4492151,47.2148476 92.0097664,48.2538997 91.8535156,49.5585938 L99.4589844,49.5585938 L99.4589844,49.40625 C99.4199217,48.1874939 99.0722689,47.1953163 98.4160156,46.4296875 C97.7597623,45.6640587 96.9003959,45.28125 95.8378906,45.28125 Z M43.4433594,78.0507812 L43.4433594,85 L42.0019531,85 L42.0019531,67.9375 L47.8144531,67.9375 C49.5878995,67.9375 50.9882761,68.3906205 52.015625,69.296875 C53.0429739,70.2031295 53.5566406,71.4492108 53.5566406,73.0351562 C53.5566406,74.6367268 53.0625049,75.8730425 52.0742188,76.7441406 C51.0859326,77.6152387 49.6543062,78.0507812 47.7792969,78.0507812 L43.4433594,78.0507812 Z M43.4433594,76.8320312 L47.8144531,76.8320312 C49.2128976,76.8320312 50.2792932,76.5000033 51.0136719,75.8359375 C51.7480505,75.1718717 52.1152344,74.2460997 52.1152344,73.0585938 C52.1152344,71.8789004 51.7500037,70.9394566 51.0195312,70.2402344 C50.2890588,69.5410121 49.2519598,69.1835938 47.9082031,69.1679688 L43.4433594,69.1679688 L43.4433594,76.8320312 Z M58.0214844,85 L56.6152344,85 L56.6152344,67 L58.0214844,67 L58.0214844,85 Z M61.0566406,78.4726562 C61.0566406,77.2539002 61.2929664,76.1562549 61.765625,75.1796875 C62.2382836,74.2031201 62.9062457,73.4433621 63.7695312,72.9003906 C64.6328168,72.3574192 65.6113227,72.0859375 66.7050781,72.0859375 C68.3925866,72.0859375 69.7597604,72.6777285 70.8066406,73.8613281 C71.8535209,75.0449278 72.3769531,76.6132715 72.3769531,78.5664062 L72.3769531,78.859375 C72.3769531,80.0859375 72.1406274,81.1894482 71.6679688,82.1699219 C71.1953101,83.1503955 70.5293012,83.9062473 69.6699219,84.4375 C68.8105426,84.9687527 67.8300836,85.234375 66.7285156,85.234375 C65.0488197,85.234375 63.683599,84.642584 62.6328125,83.4589844 C61.582026,82.2753847 61.0566406,80.707041 61.0566406,78.7539062 L61.0566406,78.4726562 Z M62.4628906,78.859375 C62.4628906,80.3750076 62.8554648,81.6191358 63.640625,82.5917969 C64.4257852,83.564458 65.4550718,84.0507812 66.7285156,84.0507812 C67.994147,84.0507812 69.0195273,83.564458 69.8046875,82.5917969 C70.5898477,81.6191358 70.9824219,80.3359455 70.9824219,78.7421875 L70.9824219,78.4726562 C70.9824219,77.5039014 70.8027362,76.6171915 70.4433594,75.8125 C70.0839826,75.0078085 69.5800814,74.3847678 68.9316406,73.9433594 C68.2831999,73.5019509 67.5410198,73.28125 66.7050781,73.28125 C65.4550719,73.28125 64.4355508,73.7714795 63.6464844,74.7519531 C62.8574179,75.7324268 62.4628906,77.0156171 62.4628906,78.6015625 L62.4628906,78.859375 Z M77.4511719,69.0742188 L77.4511719,72.3203125 L80.0761719,72.3203125 L80.0761719,73.46875 L77.4511719,73.46875 L77.4511719,81.9179688 C77.4511719,82.6210973 77.5781237,83.1445295 77.8320312,83.4882812 C78.0859388,83.832033 78.5097627,84.0039062 79.1035156,84.0039062 C79.3378918,84.0039062 79.7167943,83.9648441 80.2402344,83.8867188 L80.2988281,85.0351562 C79.9316388,85.1679694 79.4316438,85.234375 78.7988281,85.234375 C77.8378858,85.234375 77.1386741,84.9550809 76.7011719,84.3964844 C76.2636697,83.8378878 76.0449219,83.0156304 76.0449219,81.9296875 L76.0449219,73.46875 L73.7128906,73.46875 L73.7128906,72.3203125 L76.0449219,72.3203125 L76.0449219,69.0742188 L77.4511719,69.0742188 Z"/>
  </g>
</svg>
